<svg xmlns="http://www.w3.org/2000/svg" width="1024" height="1024" viewBox="0 0 1024 1024">
  <defs>
    <linearGradient id="bg" x1="0" y1="0" x2="1" y2="1">
      <stop offset="0%" stop-color="#7C2D12"/>
      <stop offset="100%" stop-color="#F59E0B"/>
    </linearGradient>
    <linearGradient id="spoolSide" x1="0" y1="0" x2="0" y2="1">
      <stop offset="0%" stop-color="#FCD34D"/>
      <stop offset="100%" stop-color="#D97706"/>
    </linearGradient>
  </defs>
  <rect x="64" y="64" width="896" height="896" rx="180" ry="180" fill="url(#bg)"/>

  <!-- Spool shadow -->
  <ellipse cx="512" cy="740" rx="240" ry="70" fill="#0B1324" opacity="0.25"/>

  <!-- Spool cylinder -->
  <ellipse cx="512" cy="360" rx="230" ry="70" fill="#FEF3C7"/>
  <rect x="282" y="360" width="460" height="310" fill="url(#spoolSide)"/>
  <ellipse cx="512" cy="670" rx="230" ry="70" fill="#FBBF24"/>

  <!-- Inner ring with eye -->
  <ellipse cx="512" cy="510" rx="140" ry="46" fill="#0B1324" opacity="0.35"/>
  <ellipse cx="512" cy="510" rx="110" ry="36" fill="#F8FAFC"/>
  <circle cx="512" cy="510" r="26" fill="#F59E0B"/>
  <circle cx="512" cy="510" r="12" fill="#0B1324"/>
  <circle cx="522" cy="498" r="6" fill="#F8FAFC"/>

  <!-- Filament strand -->
  <path d="M 260 440 C 340 400, 420 388, 512 388 C 604 388, 684 400, 764 440" fill="none" stroke="#FDE68A" stroke-width="16" stroke-linecap="round"/>
</svg>
