<svg xmlns="http://www.w3.org/2000/svg" width="1024" height="1024" viewBox="0 0 1024 1024">
  <defs>
    <linearGradient id="bg" x1="0" y1="0" x2="1" y2="1">
      <stop offset="0%" stop-color="#166534"/>
      <stop offset="100%" stop-color="#22C55E"/>
    </linearGradient>
    <linearGradient id="houseTop" x1="0" y1="0" x2="1" y2="1">
      <stop offset="0%" stop-color="#DCFCE7"/>
      <stop offset="100%" stop-color="#86EFAC"/>
    </linearGradient>
    <linearGradient id="houseLeft" x1="0" y1="0" x2="0" y2="1">
      <stop offset="0%" stop-color="#16A34A"/>
      <stop offset="100%" stop-color="#0F6A30"/>
    </linearGradient>
    <linearGradient id="houseRight" x1="0" y1="0" x2="0" y2="1">
      <stop offset="0%" stop-color="#4ADE80"/>
      <stop offset="100%" stop-color="#16A34A"/>
    </linearGradient>
  </defs>
  <rect x="64" y="64" width="896" height="896" rx="180" ry="180" fill="url(#bg)"/>

  <!-- 3D house -->
  <polygon points="512,260 712,380 512,500 312,380" fill="url(#houseTop)"/>
  <polygon points="312,380 512,500 512,740 312,620" fill="url(#houseLeft)"/>
  <polygon points="712,380 512,500 512,740 712,620" fill="url(#houseRight)"/>

  <!-- Door frame with cube inside -->
  <rect x="442" y="520" width="140" height="200" rx="16" fill="#0B1324" opacity="0.35"/>
  <polygon points="512,560 590,610 512,660 434,610" fill="#BBF7D0"/>
  <polygon points="434,610 512,660 512,712 434,664" fill="#34D399"/>
  <polygon points="590,610 512,660 512,712 590,664" fill="#22C55E"/>

  <!-- Eye on the front wall -->
  <ellipse cx="512" cy="460" rx="90" ry="52" fill="#F8FAFC" stroke="#0B1324" stroke-width="10"/>
  <circle cx="512" cy="460" r="28" fill="#10B981"/>
  <circle cx="512" cy="460" r="12" fill="#0B1324"/>
  <circle cx="522" cy="448" r="6" fill="#F8FAFC"/>
</svg>
